<mxfile host="app.diagrams.net" agent="Mozilla/5.0 (Windows NT 10.0; Win64; x64) AppleWebKit/537.36 (KHTML, like Gecko) Chrome/128.0.0.0 Safari/537.36 Edg/128.0.0.0" version="24.7.10">
  <diagram name="Page-1" id="_uLyURYcVfiQh4l7K1-Z">
    <mxGraphModel dx="1392" dy="2966" grid="1" gridSize="10" guides="1" tooltips="1" connect="1" arrows="1" fold="1" page="1" pageScale="1" pageWidth="850" pageHeight="1100" math="0" shadow="0">
      <root>
        <mxCell id="0" />
        <mxCell id="1" parent="0" />
        <mxCell id="TYcuClEsVHbE-KRNPzzX-1" value="Клиент" style="swimlane;horizontal=0;whiteSpace=wrap;html=1;startSize=50;fillColor=#0070c0;strokeColor=#6c8ebf;fontColor=#ffffff;" vertex="1" parent="1">
          <mxGeometry x="10" y="-2190" width="830" height="120" as="geometry" />
        </mxCell>
        <mxCell id="TYcuClEsVHbE-KRNPzzX-6" value="Запрос" style="shape=message;html=1;html=1;outlineConnect=0;labelPosition=center;verticalLabelPosition=bottom;align=center;verticalAlign=top;fillColor=#ffff00;" vertex="1" parent="TYcuClEsVHbE-KRNPzzX-1">
          <mxGeometry x="100" y="50" width="30" height="20" as="geometry" />
        </mxCell>
        <mxCell id="TYcuClEsVHbE-KRNPzzX-7" value="Коммерческое&lt;div&gt;предложение&lt;/div&gt;" style="shape=message;html=1;html=1;outlineConnect=0;labelPosition=center;verticalLabelPosition=bottom;align=center;verticalAlign=top;fillColor=#0170BF;" vertex="1" parent="TYcuClEsVHbE-KRNPzzX-1">
          <mxGeometry x="300" y="50" width="30" height="20" as="geometry" />
        </mxCell>
        <mxCell id="TYcuClEsVHbE-KRNPzzX-8" value="Решение о&lt;div&gt;сотрудничестве&lt;/div&gt;" style="shape=message;html=1;html=1;outlineConnect=0;labelPosition=center;verticalLabelPosition=bottom;align=center;verticalAlign=top;fillColor=#0170BF;" vertex="1" parent="TYcuClEsVHbE-KRNPzzX-1">
          <mxGeometry x="450" y="50" width="30" height="20" as="geometry" />
        </mxCell>
        <mxCell id="TYcuClEsVHbE-KRNPzzX-9" value="" style="endArrow=none;dashed=1;html=1;dashPattern=1 3;strokeWidth=2;rounded=0;exitX=1;exitY=0.5;exitDx=0;exitDy=0;entryX=0;entryY=0.5;entryDx=0;entryDy=0;" edge="1" parent="TYcuClEsVHbE-KRNPzzX-1" source="TYcuClEsVHbE-KRNPzzX-7" target="TYcuClEsVHbE-KRNPzzX-8">
          <mxGeometry width="50" height="50" relative="1" as="geometry">
            <mxPoint x="330" y="240" as="sourcePoint" />
            <mxPoint x="380" y="190" as="targetPoint" />
          </mxGeometry>
        </mxCell>
        <mxCell id="TYcuClEsVHbE-KRNPzzX-2" value="Менеджер по работе с клиентами" style="swimlane;horizontal=0;whiteSpace=wrap;html=1;startSize=50;strokeColor=#0070C0;fillColor=#0170BF;fontColor=#ffffff;" vertex="1" parent="1">
          <mxGeometry x="10" y="-2060" width="830" height="650" as="geometry" />
        </mxCell>
        <UserObject label="Зарегистрировать новый лид" link="https://its.1c.ru/db/unfdoc#bookmark:unf:UNF000072" linkTarget="_blank" id="TYcuClEsVHbE-KRNPzzX-10">
          <mxCell style="rounded=1;whiteSpace=wrap;html=1;fillColor=#0070c0;fontColor=#ffffff;" vertex="1" parent="TYcuClEsVHbE-KRNPzzX-2">
            <mxGeometry x="130" y="20" width="120" height="80" as="geometry" />
          </mxCell>
        </UserObject>
        <mxCell id="TYcuClEsVHbE-KRNPzzX-14" value="" style="edgeStyle=orthogonalEdgeStyle;rounded=0;orthogonalLoop=1;jettySize=auto;html=1;" edge="1" parent="TYcuClEsVHbE-KRNPzzX-2" source="TYcuClEsVHbE-KRNPzzX-12" target="TYcuClEsVHbE-KRNPzzX-13">
          <mxGeometry relative="1" as="geometry" />
        </mxCell>
        <UserObject label="Зарегистрировать обращение, потребность и источник привлечения" link="https://its.1c.ru/db/unfdoc#bookmark:unf:UNF000077" linkTarget="_blank" id="TYcuClEsVHbE-KRNPzzX-12">
          <mxCell style="rounded=1;whiteSpace=wrap;html=1;fillColor=#0070c0;fontColor=#ffffff;" vertex="1" parent="TYcuClEsVHbE-KRNPzzX-2">
            <mxGeometry x="130" y="140" width="120" height="80" as="geometry" />
          </mxCell>
        </UserObject>
        <mxCell id="TYcuClEsVHbE-KRNPzzX-16" value="" style="edgeStyle=orthogonalEdgeStyle;rounded=0;orthogonalLoop=1;jettySize=auto;html=1;" edge="1" parent="TYcuClEsVHbE-KRNPzzX-2" source="TYcuClEsVHbE-KRNPzzX-13" target="TYcuClEsVHbE-KRNPzzX-15">
          <mxGeometry relative="1" as="geometry" />
        </mxCell>
        <UserObject label="Подготовка и отправка коммерческого предложения" link="https://its.1c.ru/db/unfdoc#bookmark:unf:UNF000077" linkTarget="_blank" id="TYcuClEsVHbE-KRNPzzX-13">
          <mxCell style="rounded=1;whiteSpace=wrap;html=1;fillColor=#0070c0;fontColor=#ffffff;" vertex="1" parent="TYcuClEsVHbE-KRNPzzX-2">
            <mxGeometry x="130" y="300" width="120" height="80" as="geometry" />
          </mxCell>
        </UserObject>
        <mxCell id="TYcuClEsVHbE-KRNPzzX-18" value="" style="edgeStyle=orthogonalEdgeStyle;rounded=0;orthogonalLoop=1;jettySize=auto;html=1;" edge="1" parent="TYcuClEsVHbE-KRNPzzX-2" source="TYcuClEsVHbE-KRNPzzX-15" target="TYcuClEsVHbE-KRNPzzX-17">
          <mxGeometry relative="1" as="geometry" />
        </mxCell>
        <UserObject label="Получить от клиента решение по коммерческому предложению" link="https://its.1c.ru/db/unfdoc#bookmark:unf:UNF000077" linkTarget="_blank" id="TYcuClEsVHbE-KRNPzzX-15">
          <mxCell style="rounded=1;whiteSpace=wrap;html=1;fillColor=#0070c0;fontColor=#ffffff;" vertex="1" parent="TYcuClEsVHbE-KRNPzzX-2">
            <mxGeometry x="295" y="300" width="120" height="80" as="geometry" />
          </mxCell>
        </UserObject>
        <mxCell id="TYcuClEsVHbE-KRNPzzX-20" value="" style="edgeStyle=orthogonalEdgeStyle;rounded=0;orthogonalLoop=1;jettySize=auto;html=1;" edge="1" parent="TYcuClEsVHbE-KRNPzzX-2" source="TYcuClEsVHbE-KRNPzzX-17" target="TYcuClEsVHbE-KRNPzzX-19">
          <mxGeometry relative="1" as="geometry" />
        </mxCell>
        <mxCell id="TYcuClEsVHbE-KRNPzzX-21" value="Да" style="edgeLabel;html=1;align=center;verticalAlign=middle;resizable=0;points=[];" vertex="1" connectable="0" parent="TYcuClEsVHbE-KRNPzzX-20">
          <mxGeometry x="-0.1143" relative="1" as="geometry">
            <mxPoint as="offset" />
          </mxGeometry>
        </mxCell>
        <mxCell id="TYcuClEsVHbE-KRNPzzX-23" value="" style="edgeStyle=orthogonalEdgeStyle;rounded=0;orthogonalLoop=1;jettySize=auto;html=1;" edge="1" parent="TYcuClEsVHbE-KRNPzzX-2" source="TYcuClEsVHbE-KRNPzzX-17" target="TYcuClEsVHbE-KRNPzzX-22">
          <mxGeometry relative="1" as="geometry" />
        </mxCell>
        <mxCell id="TYcuClEsVHbE-KRNPzzX-24" value="Нет" style="edgeLabel;html=1;align=center;verticalAlign=middle;resizable=0;points=[];" vertex="1" connectable="0" parent="TYcuClEsVHbE-KRNPzzX-23">
          <mxGeometry x="-0.0601" relative="1" as="geometry">
            <mxPoint as="offset" />
          </mxGeometry>
        </mxCell>
        <mxCell id="TYcuClEsVHbE-KRNPzzX-17" value="Сотрудничаем?" style="rhombus;whiteSpace=wrap;html=1;fillColor=#0070c0;rounded=1;fontColor=#ffffff;" vertex="1" parent="TYcuClEsVHbE-KRNPzzX-2">
          <mxGeometry x="520" y="300" width="120" height="80" as="geometry" />
        </mxCell>
        <mxCell id="TYcuClEsVHbE-KRNPzzX-26" value="" style="edgeStyle=orthogonalEdgeStyle;rounded=0;orthogonalLoop=1;jettySize=auto;html=1;" edge="1" parent="TYcuClEsVHbE-KRNPzzX-2" source="TYcuClEsVHbE-KRNPzzX-19" target="TYcuClEsVHbE-KRNPzzX-25">
          <mxGeometry relative="1" as="geometry" />
        </mxCell>
        <UserObject label="Запланировать и организовать встречу Клиента с командой проекта" link="https://its.1c.ru/db/unfdoc#bookmark:unf:UNF000077" linkTarget="_blank" id="TYcuClEsVHbE-KRNPzzX-19">
          <mxCell style="whiteSpace=wrap;html=1;fillColor=#0070c0;rounded=1;fontColor=#ffffff;" vertex="1" parent="TYcuClEsVHbE-KRNPzzX-2">
            <mxGeometry x="520" y="430" width="120" height="60" as="geometry" />
          </mxCell>
        </UserObject>
        <mxCell id="TYcuClEsVHbE-KRNPzzX-22" value="Перевести лид в статус &quot;Некачественный&quot;, зарегистрировать причинцу" style="whiteSpace=wrap;html=1;fillColor=#002060;rounded=1;fontColor=#ffffff;" vertex="1" parent="TYcuClEsVHbE-KRNPzzX-2">
          <mxGeometry x="520" y="150" width="120" height="80" as="geometry" />
        </mxCell>
        <mxCell id="TYcuClEsVHbE-KRNPzzX-25" value="2 Контрактация" style="whiteSpace=wrap;html=1;fillColor=#002060;rounded=1;fontColor=#ffffff;" vertex="1" parent="TYcuClEsVHbE-KRNPzzX-2">
          <mxGeometry x="690" y="430" width="120" height="60" as="geometry" />
        </mxCell>
        <mxCell id="TYcuClEsVHbE-KRNPzzX-29" style="edgeStyle=orthogonalEdgeStyle;rounded=1;orthogonalLoop=1;jettySize=auto;html=1;entryX=0;entryY=0.5;entryDx=0;entryDy=0;exitX=1;exitY=0.25;exitDx=0;exitDy=0;curved=0;dashed=1;" edge="1" parent="TYcuClEsVHbE-KRNPzzX-2" source="TYcuClEsVHbE-KRNPzzX-13" target="TYcuClEsVHbE-KRNPzzX-7">
          <mxGeometry relative="1" as="geometry">
            <mxPoint x="250" y="270" as="sourcePoint" />
            <Array as="points">
              <mxPoint x="270" y="320" />
              <mxPoint x="270" y="-70" />
            </Array>
          </mxGeometry>
        </mxCell>
        <mxCell id="TYcuClEsVHbE-KRNPzzX-27" style="edgeStyle=orthogonalEdgeStyle;rounded=1;orthogonalLoop=1;jettySize=auto;html=1;entryX=-0.002;entryY=0.563;entryDx=0;entryDy=0;entryPerimeter=0;exitX=0;exitY=0.5;exitDx=0;exitDy=0;curved=0;jumpStyle=none;dashed=1;" edge="1" parent="1" source="TYcuClEsVHbE-KRNPzzX-6" target="TYcuClEsVHbE-KRNPzzX-10">
          <mxGeometry relative="1" as="geometry" />
        </mxCell>
        <mxCell id="TYcuClEsVHbE-KRNPzzX-28" style="edgeStyle=orthogonalEdgeStyle;rounded=1;orthogonalLoop=1;jettySize=auto;html=1;entryX=0;entryY=0.5;entryDx=0;entryDy=0;exitX=0;exitY=0.5;exitDx=0;exitDy=0;curved=0;dashed=1;" edge="1" parent="1" source="TYcuClEsVHbE-KRNPzzX-6" target="TYcuClEsVHbE-KRNPzzX-12">
          <mxGeometry relative="1" as="geometry" />
        </mxCell>
        <mxCell id="TYcuClEsVHbE-KRNPzzX-30" style="edgeStyle=orthogonalEdgeStyle;rounded=1;orthogonalLoop=1;jettySize=auto;html=1;entryX=1;entryY=0.25;entryDx=0;entryDy=0;exitX=1;exitY=0.5;exitDx=0;exitDy=0;dashed=1;curved=0;" edge="1" parent="1" source="TYcuClEsVHbE-KRNPzzX-8" target="TYcuClEsVHbE-KRNPzzX-15">
          <mxGeometry relative="1" as="geometry" />
        </mxCell>
      </root>
    </mxGraphModel>
  </diagram>
</mxfile>
